<?xml version="1.0" encoding="UTF-8" standalone="no"?>
<svg width="98px" height="20px" viewBox="0 0 98 20" version="1.1" xmlns="http://www.w3.org/2000/svg" xmlns:xlink="http://www.w3.org/1999/xlink" xmlns:sketch="http://www.bohemiancoding.com/sketch/ns">
    
    <title>Hemköp logo</title>
    <desc>Created with Sketch.</desc>
    <defs/>
    <g id="Page-1" stroke="none" stroke-width="1" fill="none" fill-rule="evenodd" sketch:type="MSPage">
        <g id="320-Framework-E-commerce-Cookie" sketch:type="MSArtboardGroup" transform="translate(-18.000000, -164.000000)" fill="#EE1C2E">
            <g id="Group" sketch:type="MSLayerGroup" transform="translate(0.000000, 148.000000)">
                <g id="Hemköp-logo-+-Page-1" transform="translate(18.000000, 16.000000)" sketch:type="MSShapeGroup">
                    <g id="Hemköp-logo">
                        <path d="M73.2062965,3.24453901 C73.8058608,2.91276596 74.0607201,2.0941844 73.9430015,1.58198582 C73.7292103,0.64751773 72.5124387,-0.191914894 71.2535613,0.534609929 C70.8056672,0.874609929 70.4854251,1.15134752 70.4158911,1.92141844 C70.3063268,3.13815603 71.7766233,3.84141844 73.2062965,3.24453901" id="Fill-1"/>
                        <path d="M76.5325144,3.3248227 C77.0420847,3.51234043 78.0432859,3.49716312 78.5957035,2.94453901 C79.2980121,2.24198582 79.3967534,0.776170213 78.1822057,0.297021277 C77.5332708,0.0402836879 76.9341513,0.15248227 76.3707625,0.524539007 C75.1167776,1.35092199 75.6543691,3.00326241 76.5325144,3.3248227" id="Fill-2"/>
                        <path d="M95.9378487,5.77106383 C93.8487141,4.41673759 91.2732859,4.54907801 89.3078003,5.47730496 C87.2441664,6.45092199 86.6019032,7.80964539 86.6019032,7.80964539 C86.7338548,5.58028369 86.170466,5.06255319 84.5219607,5.06255319 C82.355879,5.06255319 80.8016672,5.40156028 78.9086808,5.24652482 C76.9863389,5.08865248 75.4011407,5.04411348 74.2037912,5.04411348 C73.043062,5.04411348 70.7130045,4.96921986 68.9366989,6.86595745 C68.7739092,7.03787234 68.6306899,7.21276596 68.501407,7.39035461 C66.7153162,9.71971631 67.8060666,13.178156 64.905652,12.8316312 C63.5167504,12.6646809 62.3044266,10.7785816 62.9932436,10.1191489 C63.1718971,9.94539007 66.5640908,6.56524823 66.0737943,5.82269504 C65.2156641,4.52297872 62.7237065,4.97687943 61.4575643,6.32312057 C60.1926082,7.66978723 58.2859818,11.5893617 57.9002088,11.3421277 C57.4447534,11.0475177 58.5175643,5.55843972 58.6683449,4.0787234 C58.7690136,3.09758865 59.3619062,0.691489362 57.9052496,0.181843972 C57.4833011,0.0341843972 55.0853404,-0.448368794 54.3538245,2.49276596 C53.9977035,3.92113475 53.6303147,6.25829787 53.4885779,8.00978723 C53.4448411,8.53163121 53.4033283,9.2506383 53.3856853,10.006383 C53.3856853,10.006383 52.8762632,12.6297872 51.3978124,12.6286525 C49.6020847,12.6276596 50.8750469,9.0929078 50.6290832,7.20170213 C50.5168502,6.33900709 50.1279637,5.65446809 49.6000091,5.31673759 C47.9240756,4.24950355 44.912466,4.56439716 42.5494947,7.49092199 C42.641416,6.12269504 41.5044085,4.78765957 39.8771044,4.68425532 C38.4609228,4.59319149 36.7502965,5.41319149 35.6066172,6.88978723 C35.832121,5.25361702 34.3560424,4.31007092 32.9214766,4.67815603 C32.2634977,4.84609929 31.6127837,5.15035461 30.7948321,6.37106383 C29.4317277,8.40624113 29.0146717,11.4584397 26.3934312,12.9046809 C23.4574342,14.5234043 21.2701513,13.3466667 21.047761,13.055461 C21.047761,13.055461 24.1241604,13.1887943 26.1479123,11.3137589 C27.6389652,9.93191489 27.8583903,7.65617021 26.4774947,6.24978723 C25.2703601,5.01886525 23.4353434,4.6070922 21.4096641,4.73390071 C19.1280877,4.87489362 15.7355976,6.05248227 15.466357,10.4880851 C15.466357,10.4880851 15.1971165,15.1106383 19.8349924,16.4787234 C21.2919455,16.9080851 24.7366233,17.3479433 27.7719546,15.3856738 C30.9257458,13.3458156 31.6520726,10.8676596 31.6520726,10.8676596 C31.6520726,10.8676596 31.3101846,12.5011348 31.589062,14.8256738 C31.6833555,15.6384397 32.1837337,16.2207092 32.9333374,16.3951773 C33.6218578,16.5551773 34.4699062,16.4502128 34.9510106,15.8486525 C35.5997973,15.035461 35.4226263,13.3964539 35.9424266,11.2150355 C36.5725325,8.5658156 39.0859879,8.00794326 39.0859879,9.72411348 C39.0859879,11.4402837 39.0047413,14.0208511 39.3776157,15.1740426 C39.7321059,16.2669504 40.7608835,16.3391489 41.2928411,16.327234 C42.0952254,16.3103546 42.6427504,15.9564539 42.9244448,15.2451064 C43.2040635,14.5316312 43.3114039,13.3778723 43.7180817,11.5605674 C44.5093464,8.00794326 46.7584539,8.28695035 46.7584539,9.50553191 C46.7584539,10.0540426 46.65482,11.3560284 46.7497065,12.8168794 C46.83377,14.0960284 47.1792163,16.2995745 49.6840726,16.2995745 C51.9278427,16.2995745 53.2117761,14.2062411 53.7234221,13.4384397 C53.8138608,14.1273759 54.3140908,16.7971631 56.8601634,16.0707801 C57.849059,15.7880851 59.0874766,14.6035461 60.0877882,13.490922 C60.9981059,14.6231206 61.8511952,15.481844 62.7354191,15.8313475 C65.2595492,16.828227 67.0807776,15.8797163 68.1037731,13.4073759 C68.5180121,14.2947518 69.8691074,16.2995745 73.6295794,16.2995745 C78.7755431,16.2995745 79.8311558,12.0151773 79.9814917,10.881844 C80.1051407,9.95234043 80.2685234,9.12510638 80.3216006,8.75035461 C80.4203419,8.05858156 81.0571195,8.09787234 81.8930106,8.35985816 C82.6811619,8.60652482 82.6851649,9.12737589 82.6411316,9.5941844 C82.5769349,10.6852482 82.1601755,13.74 82.0959788,15.9469504 C82.0351921,18.151773 82.0933101,18.9409929 82.8386142,19.4734752 C83.4111952,19.8846809 84.5993525,20.0469504 85.4300545,19.5641135 C86.2613495,19.0821277 86.2950045,17.6526241 86.3999728,16.5939007 C86.5073132,15.5394326 86.7288139,12.6889362 87.6622602,11.2809929 C89.4640666,8.24794326 92.0509107,8.30964539 92.8986626,9.01588652 C94.1971256,10.0978723 93.4528593,12.2805674 91.3588321,12.5578723 C90.3625234,12.690922 89.7060272,12.0797163 88.9550893,12.5829787 C88.1430681,13.1278014 88.1494433,14.6191489 89.198236,15.1451064 C90.0705991,15.5819858 92.268705,15.892766 94.3573949,15.2346099 C99.1392315,13.7299291 98.5662057,7.47460993 95.9378487,5.77106383 L95.9378487,5.77106383 Z M19.9229107,10.6219858 C19.9229107,10.6219858 19.385764,7.71900709 22.4041936,7.70453901 C23.5818245,7.69914894 24.162115,8.77460993 23.472705,9.56751773 C22.3751346,10.8293617 19.9229107,10.6219858 19.9229107,10.6219858 L19.9229107,10.6219858 Z M73.3628593,12.9720567 C71.1852133,12.5805674 70.7703812,9.98141844 71.6228775,8.72198582 C72.3259274,7.68638298 75.9188654,7.41404255 76.3998215,9.24751773 C76.8803328,11.0821277 75.55118,13.3624113 73.3628593,12.9720567 L73.3628593,12.9720567 Z" id="Fill-3"/>
                        <path d="M14.5038517,1.24312057 C14.4175643,1.02879433 13.8749319,0.676879433 13.2394887,0.680283688 C12.8173918,0.682836879 11.0613979,0.648652482 10.3361089,3.32496454 C9.97687443,4.65177305 9.94129198,5.45092199 9.89666566,7.11929078 L4.86782753,7.01035461 C4.93602723,6.27801418 4.90948865,2.25503546 4.60511044,1.24312057 C4.53765204,1.02099291 3.96255068,0.676879433 3.32710741,0.680283688 C2.90486233,0.682836879 1.08052042,0.648652482 0.419576399,3.32496454 C0.0868804841,4.67219858 0.0753161876,5.47531915 0.0714614221,7.19702128 C0.0714614221,7.19702128 0.0714614221,13.7255319 0.955240545,15.8940426 C1.4852708,17.197305 4.00732526,17.2307801 4.38598185,15.9334752 C4.57249319,15.2982979 4.76775189,11.1492199 4.76775189,11.1492199 L9.93269289,11.0760284 C10.0054887,12.8912057 10.177767,14.8744681 10.5688775,15.8940426 C11.0674766,17.197305 13.4636581,17.188227 13.9988775,15.9334752 C14.4694554,14.8297872 14.681764,7.7870922 14.681764,7.7870922 C14.7679032,7.05503546 14.9023752,2.23361702 14.5038517,1.24312057" id="Fill-4"/>
                    </g>
                </g>
            </g>
        </g>
    </g>
</svg>