<?xml version="1.0" encoding="UTF-8"?>
<svg version="1.0" xmlns="http://www.w3.org/2000/svg" xmlns:xlink="http://www.w3.org/1999/xlink" x="0px" y="0px" viewBox="0 0 306.3 63.7" enable-background="new 0 0 306.3 63.7" xml:space="preserve">
<polygon fill-rule="evenodd" clip-rule="evenodd" fill="#E60019" points="164.5,17.8 164.5,17.8 157.4,17.8 157.4,7.6 159.7,7.6   162.1,7.6 186,7.6 186,17.8 179.1,17.8 179.1,48.6 183.5,48.6 184.5,43.2 184.5,43.2 184.7,43.1 184.8,43.1 184.9,43.1 185,43.2   195.9,43.2 195.9,60.6 157.4,60.6 157.4,51.6 164.5,50 "/>
<polygon fill-rule="evenodd" clip-rule="evenodd" points="3.2,17.8 3.2,7.6 26.8,7.6 26.8,17.8 22,17.8 26.1,38.8 33.2,7.6   48.3,7.6 55.3,38.2 59.9,17.8 54.9,17.8 54.9,7.6 77.6,7.6 77.6,17.8 74.3,17.8 63.7,60.6 45.9,60.6 40,30.2 33.4,60.6 16.5,60.6   6.2,17.8 "/>
<polygon fill-rule="evenodd" clip-rule="evenodd" fill="#E60019" points="120.5,17.8 113.4,17.8 113.4,7.6 115.7,7.6 118.1,7.6   142,7.6 142,17.8 135.1,17.8 135.1,24.8 135.1,48.6 139.5,48.6 140.5,43.2 140.6,43.2 140.7,43.1 140.8,43.1 140.9,43.1 141.1,43.2   151.9,43.2 151.9,60.6 113.4,60.6 113.4,51.6 120.5,50 "/>
<polygon fill-rule="evenodd" clip-rule="evenodd" points="195.3,17.8 195.3,9.7 195.2,8.7 195.3,7.6 216,7.6 217,7.7 218,7.6   218,17.8 214.9,17.8 219.5,27.8 224.5,17.8 221.1,17.8 221.1,7.6 243.7,7.6 243.7,17.8 240,17.8 227.1,43.2 227.1,46.5 227.1,50   233.5,51.6 233.5,60.6 204.9,60.6 204.9,51.6 211.9,50 211.9,43.2 206.5,33.4 205.2,30.7 198.2,17.8 "/>
<g>
	<path fill-rule="evenodd" clip-rule="evenodd" d="M267.2,19.3c0.6-2.5,1.6-4.2,3.1-6.3l1.4-1.4l1.6-1.3c3.3-2.1,6.7-2.9,10.5-3.4   l1-0.1l2,0h1.8l1.8,0.1l1.8,0.2l1.8,0.2l1.8,0.2l1.8,0.3l1.8,0.3l1.8,0.3v15.5h-12.6v-5.1h-1.1l-1.3,0.3l-1.8,0.7   c-2.5,1.4-2.9,3.9-0.3,5.5l0.8,0.5l1.7,0.7l2.6,0.9l1.3,0.5c3.5,1.4,7.4,3.2,9.9,6l1.2,1.7c2.1,4.1,2.2,6.7,1.1,11.1l-0.2,0.8   c-1.6,5-4.5,8.4-9.5,10.9l-1.8,0.8c-5.6,2.1-10.4,2-16.4,1.6l-1.7-0.2l-5-0.9V43.2h12.1V48h1.9h1.6l0.4,0l1.6-0.6l0.3-0.1   c2.4-1.8,1.4-3.7-0.3-5.3l-0.3-0.2l-1.8-0.7l-2.1-0.7l-2.1-0.7l-2.1-0.8l-3-1.3l-1.8-1.2l-1.6-1.4l-1.3-1.6l-1.1-1.6l-0.8-1.5   l-0.3-0.8C266.4,25.8,266.2,22.9,267.2,19.3"/>
</g>
<polygon fill-rule="evenodd" clip-rule="evenodd" points="81,21.4 100.7,21.4 101.2,21.5 101.8,21.4 102.4,21.4 102.4,50 108,51.6   108,60.6 81,60.6 81,51.6 87.7,50 87.7,32 81,32 "/>
<g>
	<path fill-rule="evenodd" clip-rule="evenodd" d="M95.1,2.3c4.7,0,8.5,3.8,8.5,8.5c0,4.7-3.8,8.5-8.5,8.5c-4.7,0-8.5-3.8-8.5-8.5   C86.7,6,90.5,2.3,95.1,2.3"/>
	<path fill-rule="evenodd" clip-rule="evenodd" d="M251.4,23.5c4.7,0,8.5,3.8,8.5,8.5c0,4.7-3.8,8.5-8.5,8.5c-4.7,0-8.5-3.8-8.5-8.5   C242.9,27.3,246.7,23.5,251.4,23.5"/>
	<path fill-rule="evenodd" clip-rule="evenodd" d="M251.4,44.8c4.7,0,8.5,3.8,8.5,8.5c0,4.7-3.8,8.5-8.5,8.5c-4.7,0-8.5-3.8-8.5-8.5   C242.9,48.6,246.7,44.8,251.4,44.8"/>
</g>
</svg>